<svg width="200" height="200" viewBox="0 0 200 200" fill="none" xmlns="http://www.w3.org/2000/svg">
<path d="M100.011 8.5945e-06C44.7548 -0.022943 0 45.9261 0 102.639C0 147.487 27.9969 185.609 66.9869 199.61C72.2377 200.964 71.4334 197.131 71.4334 194.515V176.727C41.1127 180.376 39.8838 159.766 37.8505 156.323C33.7392 149.116 24.0197 147.28 26.9244 143.838C33.8286 140.188 40.8669 144.756 49.0225 157.126C54.9212 166.101 66.4283 164.586 72.2601 163.094C73.5337 157.7 76.2596 152.88 80.0134 149.139C48.5979 143.356 35.5044 123.663 35.5044 100.252C35.5044 88.8914 39.1465 78.4485 46.2965 70.0253C41.7384 56.1396 46.721 44.2506 47.3914 42.4834C60.3731 41.2899 73.8688 52.0312 74.919 52.8804C82.2925 50.8377 90.7161 49.759 100.145 49.759C109.619 49.759 118.065 50.8836 125.506 52.9493C128.03 50.9754 140.543 41.7489 152.609 42.8735C153.257 44.6408 158.128 56.2543 153.838 69.9564C161.077 78.4026 164.764 88.9374 164.764 100.321C164.764 123.778 151.581 143.493 120.076 149.185C122.774 151.911 124.917 155.162 126.379 158.748C127.84 162.334 128.592 166.183 128.589 170.071V195.892C128.768 197.957 128.589 200 131.941 200C171.512 186.298 200 147.9 200 102.662C200 45.9261 155.223 8.5945e-06 100.011 8.5945e-06Z" fill="white"/>
</svg>
