<svg width="200" height="200" viewBox="0 0 200 200" fill="none" xmlns="http://www.w3.org/2000/svg">
<path d="M186.258 66.8249L133.175 13.7415C124.376 4.94297 112.443 0 100 0C87.557 0 75.6235 4.94297 66.8249 13.7415L13.7415 66.8249C4.94297 75.6235 0 87.557 0 100C0 112.443 4.94297 124.376 13.7415 133.175L66.8249 186.258C75.6235 195.057 87.557 200 100 200C112.443 200 124.376 195.057 133.175 186.258L186.258 133.175C195.057 124.376 200 112.443 200 100C200 87.557 195.057 75.6235 186.258 66.8249ZM100 132.942C95.674 132.942 91.3904 132.09 87.3938 130.434C83.3971 128.779 79.7656 126.352 76.7067 123.293C73.6478 120.234 71.2213 116.603 69.5658 112.606C67.9103 108.61 67.0583 104.326 67.0583 100C67.0583 95.674 67.9103 91.3904 69.5658 87.3938C71.2213 83.3971 73.6478 79.7656 76.7067 76.7067C79.7656 73.6478 83.3971 71.2213 87.3938 69.5658C91.3904 67.9103 95.674 67.0583 100 67.0583C108.737 67.0583 117.116 70.5289 123.293 76.7067C129.471 82.8845 132.942 91.2633 132.942 100C132.942 108.737 129.471 117.116 123.293 123.293C117.116 129.471 108.737 132.942 100 132.942Z" fill="white"/>
</svg>
