<svg width="20" height="20" viewBox="0 0 20 20" fill="none" xmlns="http://www.w3.org/2000/svg">
<g clip-path="url(#clip0_6_133)">
<path d="M18.6258 6.68248L13.3175 1.37415C12.4376 0.494296 11.2443 0 9.99998 0C8.75568 0 7.56234 0.494296 6.68248 1.37415L1.37415 6.68248C0.494296 7.56234 0 8.75568 0 9.99998C0 11.2443 0.494296 12.4376 1.37415 13.3175L6.68248 18.6258C7.56234 19.5057 8.75568 20 9.99998 20C11.2443 20 12.4376 19.5057 13.3175 18.6258L18.6258 13.3175C19.5057 12.4376 20 11.2443 20 9.99998C20 8.75568 19.5057 7.56234 18.6258 6.68248ZM9.99998 13.2941C9.56739 13.2941 9.13903 13.2089 8.73936 13.0434C8.33969 12.8778 7.97655 12.6352 7.67065 12.3293C7.36476 12.0234 7.12212 11.6603 6.95657 11.2606C6.79102 10.8609 6.70581 10.4326 6.70581 9.99998C6.70581 9.56739 6.79102 9.13903 6.95657 8.73936C7.12212 8.33969 7.36476 7.97655 7.67065 7.67065C7.97655 7.36476 8.33969 7.12212 8.73936 6.95657C9.13903 6.79102 9.56739 6.70581 9.99998 6.70581C10.8736 6.70581 11.7115 7.05288 12.3293 7.67065C12.9471 8.28843 13.2941 9.12631 13.2941 9.99998C13.2941 10.8736 12.9471 11.7115 12.3293 12.3293C11.7115 12.9471 10.8736 13.2941 9.99998 13.2941Z" fill="white"/>
</g>
<defs>
<clipPath id="clip0_6_133">
<rect width="20" height="20" fill="white"/>
</clipPath>
</defs>
</svg>
