<svg width="200" height="200" viewBox="0 0 200 200" fill="none" xmlns="http://www.w3.org/2000/svg">
<path d="M100 70C92.0435 70 84.4129 73.1607 78.7868 78.7868C73.1607 84.4129 70 92.0435 70 100C70 107.956 73.1607 115.587 78.7868 121.213C84.4129 126.839 92.0435 130 100 130C107.956 130 115.587 126.839 121.213 121.213C126.839 115.587 130 107.956 130 100C130 92.0435 126.839 84.4129 121.213 78.7868C115.587 73.1607 107.956 70 100 70ZM100 50C113.261 50 125.979 55.2678 135.355 64.6447C144.732 74.0215 150 86.7392 150 100C150 113.261 144.732 125.979 135.355 135.355C125.979 144.732 113.261 150 100 150C86.7392 150 74.0215 144.732 64.6447 135.355C55.2678 125.979 50 113.261 50 100C50 86.7392 55.2678 74.0215 64.6447 64.6447C74.0215 55.2678 86.7392 50 100 50ZM165 47.5C165 50.8152 163.683 53.9946 161.339 56.3388C158.995 58.683 155.815 60 152.5 60C149.185 60 146.005 58.683 143.661 56.3388C141.317 53.9946 140 50.8152 140 47.5C140 44.1848 141.317 41.0054 143.661 38.6612C146.005 36.317 149.185 35 152.5 35C155.815 35 158.995 36.317 161.339 38.6612C163.683 41.0054 165 44.1848 165 47.5ZM100 20C75.26 20 71.22 20.07 59.71 20.58C51.87 20.95 46.61 22 41.73 23.9C37.6462 25.3994 33.9541 27.8026 30.93 30.93C27.8001 33.954 25.3935 37.6458 23.89 41.73C21.99 46.63 20.94 51.88 20.58 59.71C20.06 70.75 19.99 74.61 19.99 100C19.99 124.75 20.06 128.78 20.57 140.29C20.94 148.12 21.99 153.39 23.88 158.26C25.58 162.61 27.58 165.74 30.9 169.06C34.27 172.42 37.4 174.43 41.7 176.09C46.64 178 51.9 179.06 59.7 179.42C70.74 179.94 74.6 180 99.99 180C124.74 180 128.77 179.93 140.28 179.42C148.1 179.05 153.36 178 158.25 176.11C162.33 174.603 166.021 172.201 169.05 169.08C172.42 165.72 174.43 162.59 176.09 158.28C177.99 153.36 179.05 148.1 179.41 140.28C179.93 129.25 179.99 125.38 179.99 100C179.99 75.26 179.92 71.22 179.41 59.71C179.04 51.89 177.98 46.61 176.09 41.73C174.583 37.6502 172.18 33.9598 169.06 30.93C166.037 27.7985 162.345 25.3917 158.26 23.89C153.36 21.99 148.1 20.94 140.28 20.58C129.25 20.06 125.4 20 100 20ZM100 0C127.17 0 130.56 0.0999994 141.23 0.599999C151.87 1.1 159.13 2.77 165.5 5.25C172.1 7.79 177.66 11.23 183.22 16.78C188.305 21.779 192.24 27.8259 194.75 34.5C197.22 40.87 198.9 48.13 199.4 58.78C199.87 69.44 200 72.83 200 100C200 127.17 199.9 130.56 199.4 141.22C198.9 151.87 197.22 159.12 194.75 165.5C192.246 172.178 188.311 178.226 183.22 183.22C178.22 188.303 172.173 192.238 165.5 194.75C159.13 197.22 151.87 198.9 141.23 199.4C130.56 199.87 127.17 200 100 200C72.83 200 69.44 199.9 58.77 199.4C48.13 198.9 40.88 197.22 34.5 194.75C27.8233 192.245 21.7753 188.309 16.78 183.22C11.6943 178.222 7.7596 172.175 5.25 165.5C2.77 159.13 1.1 151.87 0.600002 141.22C0.120002 130.56 0 127.17 0 100C0 72.83 0.100002 69.44 0.600002 58.78C1.1 48.13 2.77 40.88 5.25 34.5C7.75236 27.8218 11.688 21.7732 16.78 16.78C21.7767 11.6923 27.8243 7.75729 34.5 5.25C40.87 2.77 48.12 1.1 58.77 0.599999C69.44 0.129999 72.83 0 100 0Z" fill="white"/>
</svg>
