<svg width="20" height="20" viewBox="0 0 20 20" fill="none" xmlns="http://www.w3.org/2000/svg">
<path d="M10.0008 7.50002C9.33779 7.50002 8.7019 7.76341 8.23306 8.23225C7.76422 8.70109 7.50083 9.33698 7.50083 10C7.50083 10.6631 7.76422 11.2989 8.23306 11.7678C8.7019 12.2366 9.33779 12.5 10.0008 12.5C10.6639 12.5 11.2998 12.2366 11.7686 11.7678C12.2374 11.2989 12.5008 10.6631 12.5008 10C12.5008 9.33698 12.2374 8.70109 11.7686 8.23225C11.2998 7.76341 10.6639 7.50002 10.0008 7.50002ZM10.0008 5.83335C11.1059 5.83335 12.1657 6.27234 12.9471 7.05374C13.7285 7.83514 14.1675 8.89495 14.1675 10C14.1675 11.1051 13.7285 12.1649 12.9471 12.9463C12.1657 13.7277 11.1059 14.1667 10.0008 14.1667C8.89576 14.1667 7.83595 13.7277 7.05455 12.9463C6.27315 12.1649 5.83416 11.1051 5.83416 10C5.83416 8.89495 6.27315 7.83514 7.05455 7.05374C7.83595 6.27234 8.89576 5.83335 10.0008 5.83335ZM15.4175 5.62502C15.4175 5.90129 15.3078 6.16624 15.1124 6.36159C14.917 6.55694 14.6521 6.66669 14.3758 6.66669C14.0996 6.66669 13.8346 6.55694 13.6393 6.36159C13.4439 6.16624 13.3342 5.90129 13.3342 5.62502C13.3342 5.34875 13.4439 5.0838 13.6393 4.88845C13.8346 4.6931 14.0996 4.58335 14.3758 4.58335C14.6521 4.58335 14.917 4.6931 15.1124 4.88845C15.3078 5.0838 15.4175 5.34875 15.4175 5.62502ZM10.0008 3.33335C7.93916 3.33335 7.6025 3.33919 6.64333 3.38169C5.99 3.41252 5.55166 3.50002 5.145 3.65835C4.80468 3.7833 4.49701 3.98357 4.245 4.24419C3.98417 4.49619 3.78362 4.80384 3.65833 5.14419C3.5 5.55252 3.4125 5.99002 3.3825 6.64252C3.33916 7.56252 3.33333 7.88419 3.33333 10C3.33333 12.0625 3.33916 12.3984 3.38166 13.3575C3.4125 14.01 3.5 14.4492 3.6575 14.855C3.79916 15.2175 3.96583 15.4784 4.2425 15.755C4.52333 16.035 4.78416 16.2025 5.1425 16.3409C5.55416 16.5 5.9925 16.5884 6.6425 16.6184C7.5625 16.6617 7.88416 16.6667 10 16.6667C12.0625 16.6667 12.3983 16.6609 13.3575 16.6184C14.0092 16.5875 14.4475 16.5 14.855 16.3425C15.195 16.217 15.5025 16.0168 15.755 15.7567C16.0358 15.4767 16.2033 15.2159 16.3417 14.8567C16.5 14.4467 16.5883 14.0084 16.6183 13.3567C16.6617 12.4375 16.6667 12.115 16.6667 10C16.6667 7.93835 16.6608 7.60169 16.6183 6.64252C16.5875 5.99085 16.4992 5.55085 16.3417 5.14419C16.216 4.8042 16.0159 4.49667 15.7558 4.24419C15.5039 3.98323 15.1963 3.78266 14.8558 3.65752C14.4475 3.49919 14.0092 3.41169 13.3575 3.38169C12.4383 3.33835 12.1175 3.33335 10.0008 3.33335ZM10.0008 1.66669C12.265 1.66669 12.5475 1.67502 13.4367 1.71669C14.3233 1.75835 14.9283 1.89752 15.4592 2.10419C16.0092 2.31585 16.4725 2.60252 16.9358 3.06502C17.3596 3.4816 17.6875 3.98551 17.8967 4.54169C18.1025 5.07252 18.2425 5.67752 18.2842 6.56502C18.3233 7.45335 18.3342 7.73585 18.3342 10C18.3342 12.2642 18.3258 12.5467 18.2842 13.435C18.2425 14.3225 18.1025 14.9267 17.8967 15.4584C17.688 16.0148 17.3601 16.5189 16.9358 16.935C16.5191 17.3586 16.0153 17.6865 15.4592 17.8959C14.9283 18.1017 14.3233 18.2417 13.4367 18.2834C12.5475 18.3225 12.265 18.3334 10.0008 18.3334C7.73666 18.3334 7.45416 18.325 6.565 18.2834C5.67833 18.2417 5.07416 18.1017 4.5425 17.8959C3.9861 17.6871 3.4821 17.3591 3.06583 16.935C2.64202 16.5185 2.31413 16.0146 2.105 15.4584C1.89833 14.9275 1.75916 14.3225 1.7175 13.435C1.6775 12.5467 1.6675 12.2642 1.6675 10C1.6675 7.73585 1.67583 7.45335 1.7175 6.56502C1.75916 5.67752 1.89833 5.07335 2.105 4.54169C2.31353 3.98517 2.6415 3.48112 3.06583 3.06502C3.48222 2.64105 3.98619 2.31313 4.5425 2.10419C5.07333 1.89752 5.6775 1.75835 6.565 1.71669C7.45416 1.67752 7.73666 1.66669 10.0008 1.66669Z" fill="white"/>
</svg>
