<svg width="200" height="200" viewBox="0 0 200 200" fill="none" xmlns="http://www.w3.org/2000/svg">
<path d="M177.778 0C183.671 0 189.324 2.34126 193.491 6.50874C197.659 10.6762 200 16.3285 200 22.2222V177.778C200 183.671 197.659 189.324 193.491 193.491C189.324 197.659 183.671 200 177.778 200H22.2222C16.3285 200 10.6762 197.659 6.50874 193.491C2.34126 189.324 0 183.671 0 177.778V22.2222C0 16.3285 2.34126 10.6762 6.50874 6.50874C10.6762 2.34126 16.3285 0 22.2222 0H177.778ZM172.222 172.222V113.333C172.222 103.727 168.406 94.5133 161.613 87.7203C154.82 80.9274 145.607 77.1111 136 77.1111C126.556 77.1111 115.556 82.8889 110.222 91.5555V79.2222H79.2222V172.222H110.222V117.444C110.222 108.889 117.111 101.889 125.667 101.889C129.792 101.889 133.749 103.528 136.666 106.445C139.583 109.362 141.222 113.319 141.222 117.444V172.222H172.222ZM43.1111 61.7778C48.0618 61.7778 52.8098 59.8111 56.3104 56.3104C59.8111 52.8098 61.7778 48.0618 61.7778 43.1111C61.7778 32.7778 53.4444 24.3333 43.1111 24.3333C38.1309 24.3333 33.3547 26.3117 29.8332 29.8332C26.3117 33.3547 24.3333 38.1309 24.3333 43.1111C24.3333 53.4444 32.7778 61.7778 43.1111 61.7778ZM58.5556 172.222V79.2222H27.7778V172.222H58.5556Z" fill="white"/>
</svg>
